<?xml version="1.0" standalone="no"?><!DOCTYPE svg PUBLIC "-//W3C//DTD SVG 1.1//EN" "http://www.w3.org/Graphics/SVG/1.1/DTD/svg11.dtd"><svg t="1554269848927" class="icon" style="" viewBox="0 0 1024 1024" version="1.1" xmlns="http://www.w3.org/2000/svg" p-id="1242" xmlns:xlink="http://www.w3.org/1999/xlink" width="15" height="15"><defs><style type="text/css"></style></defs><path d="M512 0C229.691077 0 0 229.671385 0 512s229.691077 512 512 512 512-229.671385 512-512S794.308923 0 512 0z m0 984.615385C251.411692 984.615385 39.384615 772.588308 39.384615 512S251.411692 39.384615 512 39.384615s472.615385 212.027077 472.615385 472.615385-212.027077 472.615385-472.615385 472.615385z" fill="#fa5f4b" p-id="1243"></path><path d="M753.270154 302.001231l-302.651077 340.48-182.331077-145.860923a19.692308 19.692308 0 0 0-24.595692 30.759384l196.923077 157.538462a19.672615 19.672615 0 0 0 27.037538-2.304l315.076923-354.461539a19.692308 19.692308 0 1 0-29.459692-26.151384z" fill="#fa5f4b" p-id="1244"></path></svg>